<?xml version="1.0" encoding="UTF-8" standalone="no"?>
<svg
   id="white"
   viewBox="0 0 340.16 340.16"
   version="1.1"
   sodipodi:docname="Mark_White_Hollow.svg"
   inkscape:version="1.4.2 (ebf0e940d0, 2025-05-08)"
   xmlns:inkscape="http://www.inkscape.org/namespaces/inkscape"
   xmlns:sodipodi="http://sodipodi.sourceforge.net/DTD/sodipodi-0.dtd"
   xmlns="http://www.w3.org/2000/svg"
   xmlns:svg="http://www.w3.org/2000/svg">
  <sodipodi:namedview
     id="namedview5"
     pagecolor="#ffffff"
     bordercolor="#000000"
     borderopacity="0.25"
     inkscape:showpageshadow="2"
     inkscape:pageopacity="0.0"
     inkscape:pagecheckerboard="0"
     inkscape:deskcolor="#d1d1d1"
     inkscape:zoom="2.3629608"
     inkscape:cx="112.57063"
     inkscape:cy="184.30267"
     inkscape:window-width="1920"
     inkscape:window-height="1200"
     inkscape:window-x="0"
     inkscape:window-y="0"
     inkscape:window-maximized="1"
     inkscape:current-layer="white" />
  <defs
     id="defs1">
    <style
       id="style1">
      .cls-1 {
        stroke-linecap: round;
        stroke-linejoin: round;
      }

      .cls-1, .cls-2 {
        fill: none;
        stroke-width: 15px;
      }

      .cls-1, .cls-2, .cls-3 {
        stroke: #1d1d1b;
      }

      .cls-2, .cls-3 {
        stroke-miterlimit: 10;
      }

      .cls-3 {
        fill: #fff;
      }
    </style>
  </defs>
  <path
     id="rect1"
     style="fill:#ffffff"
     class="cls-3"
     d="M 170.08008 0 C 75.855747 0 0 75.855747 0 170.08008 C 0 264.3044 75.855747 340.16016 170.08008 340.16016 C 264.3044 340.16016 340.16016 264.3044 340.16016 170.08008 C 340.16016 75.855747 264.3044 0 170.08008 0 z M 170.08008 20.849609 C 252.40869 20.849609 319.31055 87.75145 319.31055 170.08008 C 319.31055 252.40869 252.40869 319.31055 170.08008 319.31055 C 87.75145 319.31055 20.849609 252.40869 20.849609 170.08008 C 20.849609 87.75145 87.75145 20.849609 170.08008 20.849609 z M 170.08008 35.849609 C 95.858052 35.849609 35.849609 95.858052 35.849609 170.08008 C 35.849609 244.30209 95.858052 304.31055 170.08008 304.31055 C 244.30209 304.31055 304.31055 244.30209 304.31055 170.08008 C 304.31055 95.858052 244.30209 35.849609 170.08008 35.849609 z M 140.89062 72.931641 A 7.5 7.5 0 0 1 143.78711 73.341797 A 7.5 7.5 0 0 1 148.06836 77.166016 A 7.5 7.5 0 0 1 144.56445 87.177734 C 135.81136 91.392272 128.53355 97.827979 122.55273 105.05469 C 128.97915 110.01316 135.51982 116.68149 141.76367 125.55469 A 7.5 7.5 0 0 1 139.94531 136.00391 A 7.5 7.5 0 0 1 129.49609 134.18555 C 124.20917 126.67224 118.95117 121.22273 113.95117 117.26172 C 103.17652 135.10563 98.910156 153.04492 98.910156 153.04492 A 7.5 7.5 0 0 1 89.994141 158.79102 A 7.5 7.5 0 0 1 84.25 149.875 C 84.25 149.875 88.182174 129.92302 100.55078 109.49023 C 98.704032 108.78285 96.946508 108.24979 95.294922 107.84375 C 86.136103 105.59208 80.851563 107.24023 80.851562 107.24023 A 7.5 7.5 0 0 1 71.578125 102.0918 A 7.5 7.5 0 0 1 76.728516 92.818359 C 76.728516 92.818359 79.138501 92.164192 83.111328 91.894531 C 87.084156 91.624871 92.61941 91.739427 98.875 93.277344 C 102.14825 94.08206 105.65886 95.27437 109.31641 96.962891 C 116.7409 87.79515 126.17206 79.384429 138.05664 73.662109 A 7.5 7.5 0 0 1 140.89062 72.931641 z M 198.68945 72.931641 A 7.5 7.5 0 0 1 201.52344 73.662109 C 213.40801 79.384428 222.83918 87.79515 230.26367 96.962891 C 233.92121 95.27437 237.43183 94.08206 240.70508 93.277344 C 246.96067 91.739427 252.49592 91.624871 256.46875 91.894531 C 260.44158 92.164192 262.85156 92.818359 262.85156 92.818359 A 7.5 7.5 0 0 1 268.00195 102.0918 A 7.5 7.5 0 0 1 258.72852 107.24023 C 258.72852 107.24023 253.44398 105.59208 244.28516 107.84375 C 242.63357 108.24979 240.87605 108.78285 239.0293 109.49023 C 251.39791 129.92302 255.33008 149.875 255.33008 149.875 A 7.5 7.5 0 0 1 249.58594 158.79102 A 7.5 7.5 0 0 1 240.66992 153.04492 C 240.66992 153.04492 236.40356 135.10563 225.62891 117.26172 C 220.6289 121.22273 215.37091 126.67224 210.08398 134.18555 A 7.5 7.5 0 0 1 199.63477 136.00391 A 7.5 7.5 0 0 1 197.81641 125.55469 C 204.06025 116.68149 210.60092 110.01316 217.02734 105.05469 C 211.04653 97.82798 203.76872 91.392273 195.01562 87.177734 A 7.5 7.5 0 0 1 191.51172 77.166016 A 7.5 7.5 0 0 1 195.79297 73.341797 A 7.5 7.5 0 0 1 198.68945 72.931641 z M 172.15625 175.80859 C 208.06371 177.08598 237.0293 206.75613 237.0293 243.00977 L 237.0293 243.58984 A 7.50075 7.50075 0 0 1 237.0293 243.66602 C 236.96693 249.84077 232.55693 254.93789 227.48047 256.54297 C 222.40401 258.14805 215.90408 256.54206 212.26562 251.56641 C 202.75315 238.56365 187.46468 230.13086 170.08008 230.13086 C 152.40804 230.13086 136.90201 238.8517 127.43359 252.2207 L 127.43164 252.22461 C 123.8723 257.25224 117.41442 258.93541 112.32812 257.42188 C 107.24063 255.90801 102.72902 250.89695 102.57227 244.7207 A 7.50075 7.50075 0 0 1 102.57227 244.7168 C 102.51605 242.45703 102.57308 240.18031 102.74023 237.88477 A 7.50075 7.50075 0 0 1 102.74023 237.86914 C 105.21839 204.85337 131.85525 178.28289 164.88867 175.93945 C 167.33768 175.76579 169.76242 175.72339 172.15625 175.80859 z M 171.64844 190.79492 C 169.77349 190.73099 167.87341 190.76407 165.95117 190.90039 C 140.35056 192.71653 119.63133 213.37865 117.70117 238.97461 C 117.70098 238.97761 117.70136 238.97942 117.70117 238.98242 C 117.66462 239.48546 117.68706 239.96563 117.66406 240.46289 C 129.98394 225.07345 148.87453 215.13086 170.08008 215.13086 C 190.91344 215.13086 209.52158 224.72424 221.85547 239.6543 C 220.17003 212.90624 198.64673 191.71552 171.64844 190.79492 z " />
</svg>
